
        <svg xmlns="http://www.w3.org/2000/svg" xmlns:xlink="http://www.w3.org/1999/xlink" version="1.1" width="3162.0699459766843" 
        height="2510.6378081437197" viewBox="0 0 3162.0699459766843 2510.6378081437197">
			<rect fill="#111111" width="3162.0699459766843" height="2510.6378081437197"/>
			<g transform="scale(8.103497298834233) translate(10, 10)">
				<defs id="SvgjsDefs3493"></defs><g id="SvgjsG3494" featureKey="monogramFeature-0" transform="matrix(6.8906683921813965,0,0,6.8906683921813965,0,-123.61857839721468)" fill="#cba2fd"><path d="M0 17.939999999999998 l6.18 0 l0 38.1 l-2.22 0 l0 -35.94 l-1.8 0 l0 37.74 l19.74 0 l0 -5.76 l-9.78 0 l0 -2.16 l11.94 0 l0 10.08 l-24.06 0 l0 -42.06 z M8.16 17.939999999999998 l2.16 0 l0 35.88 l9.66 0 l0 2.22 l-11.82 0 l0 -38.1 z"></path></g><g id="SvgjsG3495" featureKey="nameFeature-0" transform="matrix(1.8468676805496216,0,0,1.8468676805496216,185.95092351039415,41.801786291916414)" fill="#9896f1"><path d="M24.36 46.76 c-9.64 4.68 -20.36 9.72 -22.44 9.72 c-1.8 0 -2.08 -1.24 -1.8 -3.08 c0.44 -3.08 4.16 -15.08 7.08 -26 c2.84 -10.52 4 -10.68 4.52 -10.76 c0.44 -0.04 0.68 -0.16 1.04 -0.36 c0.4 -0.24 0.16 0.8 -0.64 1.36 c-0.64 0.44 -1.08 1.2 -2.12 4.16 c-1.2 3.28 -2.04 5.48 -3.28 10.04 c-1.8 6.6 -4.92 18.04 -5.24 20.44 c-0.2 1.48 -0.2 2.92 0.6 2.92 s2.2 -0.28 9.28 -3.28 c7.12 -2.96 12.4 -5.64 13.24 -5.96 c0.2 -0.04 0.92 0.24 -0.24 0.8 z M39.422 35.4 l-11.56 1.32 l-0.72 2.24 c-1.6 4.92 -2.56 9.28 -2.52 9.84 c0.04 0.6 0.32 1.08 1 1.04 c2.24 -0.12 7.08 -1.36 10.4 -2.4 c2.52 -0.8 3.68 -1.36 4.04 -1.68 c0.36 -0.36 1.44 0.24 1.04 0.56 c-0.4 0.36 -2.64 1.44 -5.28 2.2 c-2.64 0.8 -6.88 1.96 -9.04 2.04 c-1.48 0.08 -1.88 0 -2.04 -0.2 c-0.2 -0.16 -0.84 -0.76 -0.88 -1.48 s0.52 -4.28 2.2 -10.08 c0.16 -0.6 0.36 -1.24 0.6 -1.96 c-1.24 0.16 -2.12 0.24 -2.24 0.24 c-0.48 0.04 -0.24 -0.76 0.2 -0.84 c0.32 -0.08 1.2 -0.16 2.32 -0.32 c1.36 -4.2 3.36 -9.64 4.92 -13.64 c-3.2 0.8 -5.68 1.68 -6.2 1.92 c-0.76 0.36 -0.96 -0.48 -0.28 -0.96 c0.52 -0.4 3.16 -1.36 6.92 -2.08 c0.76 -1.92 1.4 -3.4 1.68 -4 c1 -2.08 1.2 -2.16 1.36 -2.32 c0.12 -0.16 0.92 -0.2 0.48 0.28 c-0.4 0.52 -0.6 1 -0.64 1.48 c-0.04 0.44 -0.48 0.84 -1.8 4.36 c0.92 -0.16 1.92 -0.32 3 -0.44 c5.84 -0.72 10.12 -0.64 11.12 -0.6 s0.36 0.56 -0.2 0.6 c-1.76 0.08 -5.44 -0.12 -10.72 0.76 c-1.24 0.2 -2.48 0.48 -3.6 0.72 l-0.08 0.24 c-1.4 3.8 -3.24 9.08 -4.72 13.56 c3.12 -0.36 7.4 -0.8 9.16 -1.04 c2.72 -0.36 2.84 -0.68 2.96 -0.44 c0.08 0.24 -0.2 1 -0.88 1.08 z M59.804 16.44 c-0.12 0.44 -0.24 1 -0.36 1.64 c3.72 -0.24 7.52 -0.36 10.96 -0.48 c8.4 -0.32 11.36 -0.16 12.12 -0.44 c0.76 -0.24 0.72 0.08 0.44 0.36 c-0.16 0.2 -0.84 0.72 -1.48 0.72 c-0.6 0.04 -6.24 0.04 -11.28 0.24 c-4.16 0.16 -7.8 0.32 -10.96 0.56 c-0.52 2.48 -1.2 6.16 -1.84 11.2 c-0.96 7.28 -2.84 18.4 -3 19.72 c-0.12 1.32 -1.04 2.72 -1.04 1.68 s0.72 -6.68 3 -21.24 c0.84 -5.44 1.52 -9 2.04 -11.32 c-2.56 0.2 -4.8 0.4 -6.6 0.68 c-4.88 0.76 -8.76 1.72 -8.92 2.68 c-0.12 0.68 -0.56 0.6 -0.76 0.16 c-0.28 -0.76 0.04 -1.56 6.64 -3.12 c2.92 -0.68 6.32 -1.08 9.84 -1.32 c0.72 -3 1.16 -3.44 1.48 -3.76 c0.6 -0.56 1.12 0.12 0.68 0.4 c-0.48 0.28 -0.72 0.64 -0.96 1.64 z M69.706 31.119999999999997 c-0.2 0 -0.24 -0.28 -0.12 -0.44 c0.08 -0.16 0.36 -0.44 0.56 -1.68 c0.12 -1 -0.24 -1.16 -0.24 -1.36 c0.08 -0.2 0.6 -0.68 0.88 -0.2 c0.24 0.52 0.2 1.28 0.04 2.04 c-0.24 0.8 -0.68 1.72 -1.12 1.64 z M95.28800000000001 23.96 c0.68 -0.24 1.8 -0.84 2.08 -2.12 c0.32 -1.52 -0.4 -2.56 -2.24 -2.88 c-2.04 -0.36 -6.2 0.36 -10.12 2.2 c-3.36 1.6 -6.88 4.04 -7.52 6.8 c-0.6 2.76 0.76 4.92 4.72 8.6 c1.16 1.08 2.16 2.04 3 2.92 c4.36 -1.76 12.72 -4.12 13.68 -4.32 c1.04 -0.24 1.24 0.24 0.16 0.44 c-0.92 0.2 -8.84 2.48 -13.32 4.4 c3.08 3.24 4.12 5.32 3.72 7.88 c-0.48 3.2 -4.44 5 -8.56 4.6 c-3.96 -0.36 -5.8 -2.68 -5.44 -4.8 c0.52 -2.8 4.12 -5.36 8.04 -7.4 c0.24 -0.16 0.6 -0.28 0.92 -0.44 c-0.76 -0.8 -1.72 -1.72 -2.76 -2.76 c-4.4 -4.16 -5.92 -6.32 -5.28 -9.28 s3.08 -5.2 8.16 -7.44 c5.12 -2.28 8.6 -2.52 10.76 -2.16 c2.36 0.4 3.24 1.96 2.84 3.84 c-0.4 1.68 -2.12 2.52 -2.6 2.56 c-0.48 0.08 -0.72 -0.44 -0.24 -0.64 z M88.528 47.68 c0.32 -2 -0.4 -3.84 -3.6 -7.32 c-0.36 0.16 -0.64 0.32 -0.92 0.48 c-4.92 2.68 -7.32 4.68 -7.72 6.84 c-0.32 1.84 1.36 3.64 4.64 3.88 c4 0.24 7.2 -1.64 7.6 -3.88 z"></path></g><g id="SvgjsG3496" featureKey="nameFeature-1" transform="matrix(1.3610858917236328,0,0,1.3610858917236328,185.9638321040756,142.68191208278367)" fill="#9896f1"><path d="M24.36 46.76 c-9.64 4.68 -20.36 9.72 -22.44 9.72 c-1.8 0 -2.08 -1.24 -1.8 -3.08 c0.44 -3.08 4.16 -15.08 7.08 -26 c2.84 -10.52 4 -10.68 4.52 -10.76 c0.44 -0.04 0.68 -0.16 1.04 -0.36 c0.4 -0.24 0.16 0.8 -0.64 1.36 c-0.64 0.44 -1.08 1.2 -2.12 4.16 c-1.2 3.28 -2.04 5.48 -3.28 10.04 c-1.8 6.6 -4.92 18.04 -5.24 20.44 c-0.2 1.48 -0.2 2.92 0.6 2.92 s2.2 -0.28 9.28 -3.28 c7.12 -2.96 12.4 -5.64 13.24 -5.96 c0.2 -0.04 0.92 0.24 -0.24 0.8 z M39.422 35.4 l-11.56 1.32 l-0.72 2.24 c-1.6 4.92 -2.56 9.28 -2.52 9.84 c0.04 0.6 0.32 1.08 1 1.04 c2.24 -0.12 7.08 -1.36 10.4 -2.4 c2.52 -0.8 3.68 -1.36 4.04 -1.68 c0.36 -0.36 1.44 0.24 1.04 0.56 c-0.4 0.36 -2.64 1.44 -5.28 2.2 c-2.64 0.8 -6.88 1.96 -9.04 2.04 c-1.48 0.08 -1.88 0 -2.04 -0.2 c-0.2 -0.16 -0.84 -0.76 -0.88 -1.48 s0.52 -4.28 2.2 -10.08 c0.16 -0.6 0.36 -1.24 0.6 -1.96 c-1.24 0.16 -2.12 0.24 -2.24 0.24 c-0.48 0.04 -0.24 -0.76 0.2 -0.84 c0.32 -0.08 1.2 -0.16 2.32 -0.32 c1.36 -4.2 3.36 -9.64 4.92 -13.64 c-3.2 0.8 -5.68 1.68 -6.2 1.92 c-0.76 0.36 -0.96 -0.48 -0.28 -0.96 c0.52 -0.4 3.16 -1.36 6.92 -2.08 c0.76 -1.92 1.4 -3.4 1.68 -4 c1 -2.08 1.2 -2.16 1.36 -2.32 c0.12 -0.16 0.92 -0.2 0.48 0.28 c-0.4 0.52 -0.6 1 -0.64 1.48 c-0.04 0.44 -0.48 0.84 -1.8 4.36 c0.92 -0.16 1.92 -0.32 3 -0.44 c5.84 -0.72 10.12 -0.64 11.12 -0.6 s0.36 0.56 -0.2 0.6 c-1.76 0.08 -5.44 -0.12 -10.72 0.76 c-1.24 0.2 -2.48 0.48 -3.6 0.72 l-0.08 0.24 c-1.4 3.8 -3.24 9.08 -4.72 13.56 c3.12 -0.36 7.4 -0.8 9.16 -1.04 c2.72 -0.36 2.84 -0.68 2.96 -0.44 c0.08 0.24 -0.2 1 -0.88 1.08 z M70.604 54.04 c0.12 -0.44 0.28 -2.68 0.44 -4.36 l-0.2 -1.28 c-0.44 -2.76 -3.84 -6.12 -7.88 -7.92 c-1.32 -0.56 -3.56 -1.52 -5.36 -2.36 c-4.6 7.68 -8.44 15.12 -10.48 19.88 c-0.6 1.4 -1.28 0.8 -1 0.08 c2.48 -5.84 4.92 -10.76 10.6 -20.36 c-0.76 -0.32 -1.4 -0.64 -1.72 -0.8 c-1.2 -0.6 -0.92 -2.6 3.8 -2.68 l1.12 -1.8 c7.68 -12.68 15.52 -18.24 16.64 -18.12 s1.72 0.84 1.48 2.04 c-0.2 1.2 -2.16 8.76 -4.08 18.36 c0.52 0.12 1.12 0.28 1.72 0.6 c0.84 0.48 2.8 1.08 -1.72 0.48 l-0.2 0 c-1.36 7.2 -1.56 9.28 -1.88 13.56 c-0.04 0.12 0 0.24 -0.04 0.36 c0.4 2.6 0.32 2.96 0.28 3.48 c-0.04 0.6 -0.8 1.24 -1.08 1.2 s-0.56 0.04 -0.44 -0.36 z M59.964 34.24 c4.8 -0.04 12.4 0.32 13.24 0.36 c2 -10.2 4.08 -17.52 4.16 -18.24 c0.08 -0.68 0.16 -1.32 -0.56 -1.4 c-0.76 -0.08 -10.44 9.16 -16 17.96 z M63.244 39.88 c4.96 2.36 7.2 4.84 8.04 7.16 c0.24 -2.56 0.48 -4.92 1.68 -11.36 c-4.32 -0.44 -10.16 -0.4 -13.68 -0.32 c-0.44 0.68 -0.84 1.36 -1.24 2.04 z M55.564 36.24 l1.6 0.76 l0.96 -1.6 c-2.8 0.2 -2.88 0.76 -2.56 0.84 z M83.34599999999999 22.4 c-1.12 0.64 -1.28 -0.24 -0.12 -0.88 c2.68 -1.48 6.8 -3.6 10.92 -5 c1.16 -3.88 1.88 -5.88 2.04 -6.24 c0.24 -0.64 1.08 -0.72 0.76 0.12 c-0.16 0.4 -0.92 2.68 -1.84 5.8 c2.08 -0.64 4.12 -1.04 5.92 -1.04 c5.72 0 8.88 1.2 8.88 4.56 c0 3.92 -4.6 7.28 -9.12 9.52 c-1.96 1 -6.8 3.4 -10.52 5.24 l-0.8 3.12 l12.04 -0.52 c1.16 -0.04 1.44 0.96 0.48 1 c-0.64 0.04 -7.48 0.32 -12.76 0.48 c-1.16 4.64 -2.08 8.44 -2.28 9.48 c-0.36 1.68 -0.36 1.84 -0.12 1.72 s0.4 0.08 -0.36 0.92 c-0.72 0.8 -1.12 0.36 -0.76 -1.08 l2.76 -11 c-2.6 0.08 -4.88 0.16 -5.2 0.12 c-1.04 -0.04 -1.8 -0.96 -0.32 -1.6 c0.76 -0.32 3.4 -1.64 6.72 -3.32 l1.2 -5 c1.12 -4.6 2.12 -8.28 2.92 -11.12 c-3.76 1.32 -7.72 3.2 -10.44 4.72 z M91.62599999999999 28.84 l-1.08 4.48 l9.32 -4.76 c6.28 -3.16 9.36 -6.32 9.36 -9.04 c0 -2.2 -3.24 -3.44 -8.2 -3.44 c-1.68 0 -3.92 0.52 -6.28 1.28 c-1 3.4 -2.16 7.56 -3.12 11.48 z M88.70599999999999 37.64 l0.68 -2.76 c-1.68 0.84 -3.08 1.48 -3.68 1.72 c-2.04 0.84 -2.28 1.16 -0.76 1.16 c0.4 0 1.96 -0.04 3.76 -0.12 z M124.448 50.64 c-2.96 0 -3.04 -11.64 -2.96 -21.64 c0.04 -4.88 0.24 -12.64 -1.24 -12.64 c-1.32 0 -3.72 4.88 -5.48 12 c-1.6 6.44 -2.92 13.08 -2.64 14.56 c0.2 1.04 -0.44 1.04 -0.56 0.08 c-0.28 -2.08 0.76 -9.28 2.28 -14.88 c1.56 -5.8 4 -12.56 6.28 -12.56 c2.84 0 2.56 9.84 2.48 13.28 c-0.16 7.6 -0.28 21 1.88 21 c2.12 0 6.44 -7.68 8.4 -16.84 c1.36 -6.4 1.96 -17.08 1.56 -21.44 c-0.04 -0.72 0.68 -0.36 0.72 0.16 c0.52 5.48 0.04 13.96 -1.64 21.88 c-2.16 10.44 -6.4 17.04 -9.08 17.04 z"></path></g>
			</g>
		</svg>
	